<?xml version="1.0" encoding="UTF-8"?>
<svg version="1.1" xmlns="http://www.w3.org/2000/svg" width="512" height="512">
<path d="M0 0 C1.47661052 -0.00417755 2.95321783 -0.00965737 4.42981923 -0.01631981 C8.47007624 -0.03073804 12.51012864 -0.02654109 16.55039668 -0.019153 C20.91451718 -0.01441462 25.27859384 -0.02693711 29.6427002 -0.03717041 C38.18570395 -0.05435076 46.72863412 -0.05519999 55.27165066 -0.04995751 C62.21690641 -0.04591307 69.16214045 -0.04736262 76.10739517 -0.05270576 C77.09657913 -0.05345419 78.0857631 -0.05420261 79.10492233 -0.05497371 C81.11457149 -0.05650522 83.12422064 -0.05804356 85.13386978 -0.05958868 C103.97248446 -0.07331102 122.8110576 -0.06787795 141.64967133 -0.05640347 C158.87500228 -0.04647188 176.10022579 -0.05941095 193.32554017 -0.08333766 C211.0230136 -0.10773454 228.720437 -0.11733504 246.41792691 -0.11068493 C256.34951026 -0.10719396 266.28101101 -0.10941673 276.21258163 -0.12693596 C284.66728698 -0.1416653 293.12185155 -0.1422838 301.57655416 -0.12486505 C305.88783492 -0.11635863 310.19886426 -0.11419667 314.51013184 -0.1295166 C318.46178245 -0.14338448 322.41296676 -0.1385739 326.36459054 -0.11927737 C327.78913634 -0.11552345 329.21371969 -0.11842175 330.63823198 -0.12888902 C344.3324388 -0.22230669 355.38572904 2.96697959 365.56082153 12.38768005 C373.46619437 20.66246284 377.48891856 30.03395897 377.57766724 41.40354919 C377.58423843 42.1015715 377.59080963 42.79959381 377.59757996 43.51876831 C377.61723374 45.82012549 377.62895342 48.12141788 377.63894653 50.4228363 C377.64302206 51.20976805 377.64709759 51.99669979 377.65129662 52.80747795 C377.6721165 56.96710317 377.68643977 61.12669572 377.6958313 65.28636169 C377.70692975 69.58634991 377.74138002 73.88582547 377.781003 78.18563175 C377.80709898 81.49099716 377.81551648 84.79623855 377.81911278 88.10169792 C377.82399146 89.68738228 377.83564184 91.27306064 377.85415077 92.85864449 C377.8784103 95.07325195 377.87760322 97.28650677 377.87063599 99.50120544 C377.87943535 101.39172386 377.87943535 101.39172386 377.88841248 103.32043457 C377.40066528 106.38768005 377.40066528 106.38768005 375.55879211 108.31808472 C373.40066528 109.38768005 373.40066528 109.38768005 370.40066528 109.38768005 C370.40066528 119.61768005 370.40066528 129.84768005 370.40066528 140.38768005 C373.04066528 138.73768005 375.68066528 137.08768005 378.40066528 135.38768005 C388.24225987 130.77394051 400.90996253 130.71750295 411.06863403 134.35643005 C421.43767016 138.94173246 429.9339183 145.74074542 434.65847778 156.2978363 C438.54441466 167.23981644 438.62980776 178.5477961 434.40066528 189.38768005 C431.31999829 195.5807127 427.57809576 201.15793052 423.46316528 206.70018005 C422.30687713 208.27862622 421.15197886 209.85809129 419.99832153 211.4384613 C419.40551392 212.25008728 418.8127063 213.06171326 418.20193481 213.89793396 C415.21618686 218.02488674 412.3096905 222.20646389 409.40066528 226.38768005 C404.43597135 233.51461797 399.40835931 240.59009529 394.27761841 247.59861755 C393.28842558 248.95659425 392.32157404 250.3310611 391.37493896 251.71903992 C389.40066528 254.38768005 389.40066528 254.38768005 386.70532227 257.23991394 C375.70752252 269.64687583 376.86725881 284.24135643 377.08340287 299.87619781 C377.12449266 303.70122172 377.10246242 307.52591704 377.08760071 311.35105896 C377.06890638 318.56885897 377.10561835 325.78523083 377.16307324 333.00278282 C377.22580844 341.23038105 377.22550735 349.45761757 377.220348 357.68540955 C377.21113937 374.5867162 377.27967228 391.48681362 377.40066528 408.38768005 C378.24591263 408.38101822 379.09115997 408.37435638 379.96202087 408.36749268 C387.92248972 408.3074148 395.88288257 408.26172262 403.84352589 408.23224354 C407.93631971 408.21657859 412.02892642 408.19532547 416.12161255 408.16136169 C420.0703128 408.12879738 424.01883293 408.11083328 427.96765709 408.10304832 C429.47518437 408.09749951 430.98270164 408.08666411 432.49015236 408.07048988 C434.59961987 408.04875375 436.70834037 408.04571141 438.81790161 408.04710388 C440.01925247 408.04044205 441.22060333 408.03378021 442.45835876 408.0269165 C445.40066528 408.38768005 445.40066528 408.38768005 447.24958801 409.72146606 C449.75863945 413.35338263 449.83167351 417.14686693 449.40066528 421.38768005 C446.81195084 434.15994029 441.51867191 444.23141748 430.94363403 452.2509613 C420.67456134 458.76818381 410.8200606 459.83145387 398.84638977 459.77536011 C397.38684074 459.77953902 395.92729496 459.78501959 394.46775514 459.79167992 C390.47922404 459.80608035 386.49090052 459.8019068 382.50235832 459.79451311 C378.19206887 459.78977025 373.88182361 459.80230121 369.57154846 459.81253052 C361.13562754 459.82970251 352.69978117 459.83056178 344.26384731 459.82531761 C337.40444494 459.82127138 330.54506455 459.82272486 323.68566322 459.82806587 C322.21960885 459.82918851 322.21960885 459.82918851 320.72393722 459.83033382 C318.73820906 459.83186534 316.75248091 459.83340369 314.76675276 459.83494879 C296.15602773 459.84866827 277.54534478 459.84324022 258.93462072 459.83176357 C241.92409932 459.82183378 224.91368673 459.83476847 207.90318211 459.85869776 C190.42036959 459.88310541 172.93760771 459.89269241 155.45477849 459.88604504 C145.64610684 459.88255627 135.83751883 459.8847622 126.02886009 459.90229607 C117.67817334 459.91703895 109.32762914 459.91762634 100.97694512 459.90022516 C96.72009072 459.89172958 92.46349073 459.88953008 88.20664978 459.90487671 C84.30242698 459.91877728 80.39867525 459.91389246 76.49447934 459.89463747 C75.08944318 459.89089348 73.68436881 459.89375281 72.27936687 459.90424912 C58.11027321 460.00249322 45.9791326 457.20818865 35.40066528 447.38768005 C25.52201532 436.41140232 22.78987945 425.55054487 22.91964722 411.04327393 C22.91789966 409.61897068 22.91439137 408.19466871 22.90929055 406.77037352 C22.9004028 402.88431895 22.91626788 398.99871054 22.9364028 395.11271274 C22.95375359 390.91177704 22.94782572 386.71086443 22.9447937 382.50990295 C22.94270114 375.24069113 22.95520033 367.97162346 22.97774506 360.70244789 C23.01031916 350.19259792 23.0206776 339.68281731 23.02569702 329.17292234 C23.0344412 312.1193874 23.06103294 295.06592921 23.09890747 278.01243591 C23.13565029 261.45124189 23.16395093 244.89006874 23.18093872 228.32884216 C23.18251506 226.79636788 23.18251506 226.79636788 23.18412325 225.23293451 C23.18934358 220.10737518 23.19439837 214.9818157 23.19937086 209.85625613 C23.24080556 167.36667712 23.31152842 124.87718376 23.40066528 82.38768005 C18.12066528 82.38768005 12.84066528 82.38768005 7.40066528 82.38768005 C7.07066528 84.03768005 6.74066528 85.68768005 6.40066528 87.38768005 C3.24534576 89.49122641 2.43742614 89.64681221 -1.17501831 89.69407654 C-2.0996286 89.71006393 -3.02423889 89.72605133 -3.97686768 89.74252319 C-5.47221542 89.75056725 -5.47221542 89.75056725 -6.99777222 89.7587738 C-8.02488312 89.76780228 -9.05199402 89.77683075 -10.11022949 89.78613281 C-12.28397706 89.80064564 -14.45776841 89.80952461 -16.63156128 89.81321716 C-19.95490256 89.82511051 -23.27638559 89.87428494 -26.59933472 89.92478943 C-28.71130482 89.9342539 -30.82328633 89.94148882 -32.93527222 89.9462738 C-33.92812225 89.96580612 -34.92097229 89.98533844 -35.94390869 90.00546265 C-40.34436541 89.97673307 -42.91364089 89.80440302 -46.72872925 87.48582458 C-49.40668411 83.05052737 -49.28164688 79.35117962 -49.19308472 74.2587738 C-49.193125 73.27329056 -49.19316528 72.28780731 -49.19320679 71.27246094 C-49.18785151 69.18702319 -49.17026853 67.10158596 -49.1413269 65.01634216 C-49.09979527 61.86017952 -49.1002356 58.70617698 -49.10714722 55.54978943 C-49.0536089 38.56888246 -47.57954095 24.27217253 -35.61105347 11.23924255 C-25.16943578 1.62889929 -13.67296424 -0.06311525 0 0 Z " fill="#D9E0E6" transform="translate(55.599334716796875,26.612319946289063)"/>
<path d="M0 0 C1.47661052 -0.00417755 2.95321783 -0.00965737 4.42981923 -0.01631981 C8.47007624 -0.03073804 12.51012864 -0.02654109 16.55039668 -0.019153 C20.91451718 -0.01441462 25.27859384 -0.02693711 29.6427002 -0.03717041 C38.18570395 -0.05435076 46.72863412 -0.05519999 55.27165066 -0.04995751 C62.21690641 -0.04591307 69.16214045 -0.04736262 76.10739517 -0.05270576 C77.09657913 -0.05345419 78.0857631 -0.05420261 79.10492233 -0.05497371 C81.11457149 -0.05650522 83.12422064 -0.05804356 85.13386978 -0.05958868 C103.97248446 -0.07331102 122.8110576 -0.06787795 141.64967133 -0.05640347 C158.87500228 -0.04647188 176.10022579 -0.05941095 193.32554017 -0.08333766 C211.0230136 -0.10773454 228.720437 -0.11733504 246.41792691 -0.11068493 C256.34951026 -0.10719396 266.28101101 -0.10941673 276.21258163 -0.12693596 C284.66728698 -0.1416653 293.12185155 -0.1422838 301.57655416 -0.12486505 C305.88783492 -0.11635863 310.19886426 -0.11419667 314.51013184 -0.1295166 C318.46178245 -0.14338448 322.41296676 -0.1385739 326.36459054 -0.11927737 C327.78913634 -0.11552345 329.21371969 -0.11842175 330.63823198 -0.12888902 C344.3324388 -0.22230669 355.38572904 2.96697959 365.56082153 12.38768005 C373.46619437 20.66246284 377.48891856 30.03395897 377.57766724 41.40354919 C377.58423843 42.1015715 377.59080963 42.79959381 377.59757996 43.51876831 C377.61723374 45.82012549 377.62895342 48.12141788 377.63894653 50.4228363 C377.64302206 51.20976805 377.64709759 51.99669979 377.65129662 52.80747795 C377.6721165 56.96710317 377.68643977 61.12669572 377.6958313 65.28636169 C377.70692975 69.58634991 377.74138002 73.88582547 377.781003 78.18563175 C377.80709898 81.49099716 377.81551648 84.79623855 377.81911278 88.10169792 C377.82399146 89.68738228 377.83564184 91.27306064 377.85415077 92.85864449 C377.8784103 95.07325195 377.87760322 97.28650677 377.87063599 99.50120544 C377.87943535 101.39172386 377.87943535 101.39172386 377.88841248 103.32043457 C377.40066528 106.38768005 377.40066528 106.38768005 375.59394836 108.32199097 C372.22407421 109.95937109 369.94363775 109.35394527 366.40066528 108.38768005 C364.06684519 106.09570983 363.44440555 104.72578731 363.02212524 101.46160889 C363.0200708 100.32515427 363.01801636 99.18869965 363.01589966 98.01780701 C363.00578857 96.72578873 362.99567749 95.43377045 362.98526001 94.1026001 C362.98681595 93.41432444 362.98837189 92.72604877 362.98997498 92.01691628 C362.99446807 89.85050741 362.98040898 87.68490913 362.96157837 85.51858521 C362.92482898 80.9124634 362.91110757 76.30642679 362.90066528 71.70018005 C362.88854616 66.37654082 362.86673837 61.05329648 362.82066345 55.7298336 C362.80720359 53.60889056 362.81124516 51.48846085 362.81607056 49.36749268 C362.73980815 39.50362601 362.06699165 31.97349971 355.40066528 24.38768005 C355.40066528 23.72768005 355.40066528 23.06768005 355.40066528 22.38768005 C354.82445435 22.10021912 354.24824341 21.81275818 353.65457153 21.5165863 C352.22276703 20.79944332 350.79284492 20.07851998 349.36550903 19.3525238 C348.6964856 19.01350037 348.02746216 18.67447693 347.33816528 18.32518005 C346.66656372 17.98357849 345.99496216 17.64197693 345.30300903 17.2900238 C341.77265864 15.61546335 339.00151298 15.25981357 335.1432848 15.24901485 C334.04700884 15.24354041 332.95073288 15.23806597 331.82123643 15.23242563 C330.61210814 15.23144752 329.40297985 15.23046942 328.1572113 15.22946167 C326.87649614 15.22452369 325.59578098 15.21958572 324.27625626 15.2144981 C320.71434493 15.20089799 317.15244316 15.19349323 313.59051263 15.18707144 C309.75207227 15.17907572 305.91365186 15.1653751 302.07522583 15.15235901 C295.42254065 15.1305845 288.76985347 15.11244358 282.11715126 15.09675407 C272.49840053 15.07406432 262.87967188 15.04592025 253.26093986 15.0164348 C237.65607617 14.96874792 222.05120347 14.9254867 206.44631958 14.88499451 C191.28550515 14.84564516 176.12469873 14.80422028 160.96389771 14.75999451 C160.02975626 14.75727023 159.09561481 14.75454596 158.13316605 14.75173914 C153.44696355 14.73805975 148.76076117 14.72433946 144.07455885 14.71059883 C105.18327767 14.59661683 66.29197928 14.48981129 27.40066528 14.38768005 C28.106427 15.42215271 28.106427 15.42215271 28.82644653 16.4775238 C36.3983936 27.9059905 37.84538795 36.44593758 37.77920532 49.98080444 C37.78249934 51.56537154 37.78711528 53.14993634 37.79293299 54.73449618 C37.80511352 59.07312567 37.79879347 63.41155908 37.789428 67.75018823 C37.78261949 72.43535099 37.79317042 77.12047813 37.80171204 81.80563354 C37.81426834 89.92004844 37.81625494 98.03441004 37.81135559 106.14883232 C37.80454313 117.8917458 37.81707278 129.63457905 37.83486277 141.37747819 C37.86350265 160.44492152 37.88102291 179.51235618 37.88943481 198.57981873 C37.89019558 200.29084391 37.89019558 200.29084391 37.89097172 202.03643525 C37.89449874 210.13268341 37.89762813 218.2289317 37.90066528 226.32518005 C37.90413419 235.57184359 37.90778334 244.81850701 37.91189575 254.06517029 C37.91239837 255.20415805 37.91290098 256.34314581 37.91341883 257.51664834 C37.92216477 276.51250662 37.94260436 295.5083351 37.97137785 314.50417334 C37.98855091 326.21658872 37.99514575 337.92891978 37.9880718 349.6413461 C37.98389075 357.66674754 37.99024784 365.69209582 38.00487053 373.71748488 C38.01292359 378.34656462 38.01604779 382.9755125 38.0060482 387.60459137 C37.99696387 391.8453966 38.0017121 396.08595705 38.01726264 400.3267414 C38.02044268 401.85759384 38.01859462 403.3884671 38.01109725 404.91930448 C37.96253247 415.59984817 38.31999509 425.96706646 45.42800903 434.55955505 C51.42090143 440.11336424 58.29202015 442.74301149 66.40066528 443.13768005 C74.50931041 442.74301149 81.38042914 440.11336424 87.37332153 434.55955505 C92.18406047 428.74411634 94.0172648 421.83828436 94.83816528 414.45018005 C95.40066528 411.38768005 95.40066528 411.38768005 97.14834905 409.71934527 C99.6981872 408.21177243 101.06340223 408.01434111 104.00022507 408.01853657 C105.38637091 408.00957685 105.38637091 408.00957685 106.8005197 408.00043613 C108.31802176 408.01354391 108.31802176 408.01354391 109.86618042 408.0269165 C110.94357239 408.02435323 112.02096436 408.02178995 113.13100457 408.01914901 C116.75326867 408.01419441 120.37511906 408.0307321 123.99734497 408.04710388 C126.58903493 408.04794979 129.18072562 408.04747572 131.77241516 408.04577637 C137.35835835 408.04420286 142.94419646 408.05362005 148.53011322 408.07048988 C156.60640588 408.09486495 164.6826477 408.10268362 172.75897315 408.10645386 C185.86205949 408.11302069 198.96508982 408.13298813 212.06814575 408.16136169 C224.79698409 408.18889627 237.52580714 408.21009839 250.25466919 408.22288513 C251.44346615 408.22409112 251.44346615 408.22409112 252.65627921 408.22532147 C258.8543406 408.23155969 265.05240234 408.23743048 271.2504642 408.24318516 C301.63391597 408.27148922 332.01722754 408.33184335 362.40066528 408.38768005 C361.90566528 350.96768005 361.90566528 350.96768005 361.40066528 292.38768005 C352.22006594 305.07629195 352.22006594 305.07629195 343.21316528 317.88768005 C330.49119439 335.5922527 314.01804198 344.01746523 294.46316528 352.26268005 C292.70681065 353.01412771 290.95094812 353.76672662 289.19558716 354.52049255 C285.27872773 356.19973903 281.35880375 357.87120941 277.42950439 359.52116394 C276.09084695 360.09290383 274.75900538 360.68090953 273.43505859 361.28593445 C268.93409371 363.32667757 266.23305806 363.78163951 261.40066528 362.38768005 C259.46316528 360.88768005 259.46316528 360.88768005 258.40066528 358.38768005 C257.94050441 354.05522199 258.34088351 349.88688341 258.85769653 345.5712738 C259.7329911 337.92782318 260.03878157 330.2261761 260.45022583 322.54588318 C261.90816989 295.60079996 269.93191527 278.25958807 285.64968872 256.78416443 C288.47799654 252.91318428 291.28279861 249.02530115 294.08816528 245.13768005 C294.63158569 244.38551208 295.1750061 243.63334412 295.7348938 242.85838318 C298.97055122 238.37786587 302.19266248 233.88803103 305.40066528 229.38768005 C311.91806024 220.24474391 318.507445 211.15375419 325.08718872 202.0556488 C330.54217461 194.51185658 335.9966325 186.96809228 341.40066528 179.38768005 C359.38434291 154.17868219 359.38434291 154.17868219 365.06472778 147.0712738 C366.20660248 145.63224457 367.28012078 144.13942064 368.33816528 142.63768005 C374.54568141 135.86584428 383.02109608 132.81131387 392.02175903 132.1025238 C404.96418095 131.80274968 415.98261507 134.48121951 425.66629028 143.49705505 C434.37857667 152.85469599 437.97163135 163.0188455 437.65066528 175.81736755 C436.47880218 187.8655851 430.51562269 197.20148281 423.46316528 206.70018005 C422.30687713 208.27862622 421.15197886 209.85809129 419.99832153 211.4384613 C419.40551392 212.25008728 418.8127063 213.06171326 418.20193481 213.89793396 C415.21618686 218.02488674 412.3096905 222.20646389 409.40066528 226.38768005 C404.43597135 233.51461797 399.40835931 240.59009529 394.27761841 247.59861755 C393.28842558 248.95659425 392.32157404 250.3310611 391.37493896 251.71903992 C389.40066528 254.38768005 389.40066528 254.38768005 386.70532227 257.23991394 C375.70752252 269.64687583 376.86725881 284.24135643 377.08340287 299.87619781 C377.12449266 303.70122172 377.10246242 307.52591704 377.08760071 311.35105896 C377.06890638 318.56885897 377.10561835 325.78523083 377.16307324 333.00278282 C377.22580844 341.23038105 377.22550735 349.45761757 377.220348 357.68540955 C377.21113937 374.5867162 377.27967228 391.48681362 377.40066528 408.38768005 C378.24591263 408.38101822 379.09115997 408.37435638 379.96202087 408.36749268 C387.92248972 408.3074148 395.88288257 408.26172262 403.84352589 408.23224354 C407.93631971 408.21657859 412.02892642 408.19532547 416.12161255 408.16136169 C420.0703128 408.12879738 424.01883293 408.11083328 427.96765709 408.10304832 C429.47518437 408.09749951 430.98270164 408.08666411 432.49015236 408.07048988 C434.59961987 408.04875375 436.70834037 408.04571141 438.81790161 408.04710388 C440.01925247 408.04044205 441.22060333 408.03378021 442.45835876 408.0269165 C445.40066528 408.38768005 445.40066528 408.38768005 447.24958801 409.72146606 C449.75863945 413.35338263 449.83167351 417.14686693 449.40066528 421.38768005 C446.81195084 434.15994029 441.51867191 444.23141748 430.94363403 452.2509613 C420.67456134 458.76818381 410.8200606 459.83145387 398.84638977 459.77536011 C397.38684074 459.77953902 395.92729496 459.78501959 394.46775514 459.79167992 C390.47922404 459.80608035 386.49090052 459.8019068 382.50235832 459.79451311 C378.19206887 459.78977025 373.88182361 459.80230121 369.57154846 459.81253052 C361.13562754 459.82970251 352.69978117 459.83056178 344.26384731 459.82531761 C337.40444494 459.82127138 330.54506455 459.82272486 323.68566322 459.82806587 C322.21960885 459.82918851 322.21960885 459.82918851 320.72393722 459.83033382 C318.73820906 459.83186534 316.75248091 459.83340369 314.76675276 459.83494879 C296.15602773 459.84866827 277.54534478 459.84324022 258.93462072 459.83176357 C241.92409932 459.82183378 224.91368673 459.83476847 207.90318211 459.85869776 C190.42036959 459.88310541 172.93760771 459.89269241 155.45477849 459.88604504 C145.64610684 459.88255627 135.83751883 459.8847622 126.02886009 459.90229607 C117.67817334 459.91703895 109.32762914 459.91762634 100.97694512 459.90022516 C96.72009072 459.89172958 92.46349073 459.88953008 88.20664978 459.90487671 C84.30242698 459.91877728 80.39867525 459.91389246 76.49447934 459.89463747 C75.08944318 459.89089348 73.68436881 459.89375281 72.27936687 459.90424912 C58.11027321 460.00249322 45.9791326 457.20818865 35.40066528 447.38768005 C25.52201532 436.41140232 22.78987945 425.55054487 22.91964722 411.04327393 C22.91789966 409.61897068 22.91439137 408.19466871 22.90929055 406.77037352 C22.9004028 402.88431895 22.91626788 398.99871054 22.9364028 395.11271274 C22.95375359 390.91177704 22.94782572 386.71086443 22.9447937 382.50990295 C22.94270114 375.24069113 22.95520033 367.97162346 22.97774506 360.70244789 C23.01031916 350.19259792 23.0206776 339.68281731 23.02569702 329.17292234 C23.0344412 312.1193874 23.06103294 295.06592921 23.09890747 278.01243591 C23.13565029 261.45124189 23.16395093 244.89006874 23.18093872 228.32884216 C23.18251506 226.79636788 23.18251506 226.79636788 23.18412325 225.23293451 C23.18934358 220.10737518 23.19439837 214.9818157 23.19937086 209.85625613 C23.24080556 167.36667712 23.31152842 124.87718376 23.40066528 82.38768005 C18.12066528 82.38768005 12.84066528 82.38768005 7.40066528 82.38768005 C7.07066528 84.03768005 6.74066528 85.68768005 6.40066528 87.38768005 C3.24534576 89.49122641 2.43742614 89.64681221 -1.17501831 89.69407654 C-2.0996286 89.71006393 -3.02423889 89.72605133 -3.97686768 89.74252319 C-5.47221542 89.75056725 -5.47221542 89.75056725 -6.99777222 89.7587738 C-8.02488312 89.76780228 -9.05199402 89.77683075 -10.11022949 89.78613281 C-12.28397706 89.80064564 -14.45776841 89.80952461 -16.63156128 89.81321716 C-19.95490256 89.82511051 -23.27638559 89.87428494 -26.59933472 89.92478943 C-28.71130482 89.9342539 -30.82328633 89.94148882 -32.93527222 89.9462738 C-33.92812225 89.96580612 -34.92097229 89.98533844 -35.94390869 90.00546265 C-40.34436541 89.97673307 -42.91364089 89.80440302 -46.72872925 87.48582458 C-49.40668411 83.05052737 -49.28164688 79.35117962 -49.19308472 74.2587738 C-49.193125 73.27329056 -49.19316528 72.28780731 -49.19320679 71.27246094 C-49.18785151 69.18702319 -49.17026853 67.10158596 -49.1413269 65.01634216 C-49.09979527 61.86017952 -49.1002356 58.70617698 -49.10714722 55.54978943 C-49.0536089 38.56888246 -47.57954095 24.27217253 -35.61105347 11.23924255 C-25.16943578 1.62889929 -13.67296424 -0.06311525 0 0 Z " fill="#484C55" transform="translate(55.599334716796875,26.612319946289063)"/>
<path d="M0 0 C6.92048946 4.21559961 13.50245065 8.741413 19.99462891 13.58129883 C23.53227389 16.21230441 27.10121642 18.77720879 30.73828125 21.26953125 C31.52122559 21.80876221 32.30416992 22.34799316 33.11083984 22.90356445 C34.64071494 23.95328672 36.1760851 24.99505292 37.71728516 26.02807617 C38.40741699 26.50349854 39.09754883 26.9789209 39.80859375 27.46875 C40.42532959 27.88576172 41.04206543 28.30277344 41.67749023 28.73242188 C42.33213257 29.35987305 42.33213257 29.35987305 43 30 C43 33.30049395 42.65315372 33.85273461 40.796875 36.4140625 C40.31734375 37.08373047 39.8378125 37.75339844 39.34375 38.44335938 C38.8178125 39.16330078 38.291875 39.88324219 37.75 40.625 C36.64043988 42.16913783 35.53107007 43.71341242 34.421875 45.2578125 C33.85146484 46.04704102 33.28105469 46.83626953 32.69335938 47.64941406 C30.1016017 51.2470846 27.55161025 54.87380504 25 58.5 C24.00023046 59.91682931 23.00022964 61.33349546 22 62.75 C21.505 63.45125 21.01 64.1525 20.5 64.875 C11 78.33333333 1.5 91.79166667 -8 105.25 C-8.49540283 105.9519751 -8.99080566 106.6539502 -9.5012207 107.37719727 C-10.49656337 108.78695528 -11.49248997 110.1963012 -12.48901367 111.60522461 C-15.06533128 115.24934974 -17.62964195 118.9011191 -20.17578125 122.56640625 C-30.2455891 137.02270699 -30.2455891 137.02270699 -36 143 C-40.23460093 141.53628397 -43.61175328 139.32302499 -47.1875 136.6875 C-47.77974365 136.25743652 -48.3719873 135.82737305 -48.98217773 135.38427734 C-50.28153394 134.44059591 -51.57940064 133.49486107 -52.87597656 132.54736328 C-55.15777592 130.88505934 -57.4489281 129.23629829 -59.7421875 127.58984375 C-61.34902326 126.43498616 -62.9557949 125.28003935 -64.5625 124.125 C-65.32393311 123.57803467 -66.08536621 123.03106934 -66.86987305 122.4675293 C-70.65870056 119.73403153 -74.38519698 116.96342268 -78 114 C-77.56138039 108.73656463 -74.71529217 105.3637251 -71.6875 101.25 C-70.58701635 99.72411931 -69.48676225 98.19807304 -68.38671875 96.671875 C-67.54052979 95.50688477 -67.54052979 95.50688477 -66.67724609 94.31835938 C-64.08514143 90.7354444 -61.54379777 87.11728464 -59 83.5 C-58.00027521 82.08313911 -57.00027434 80.66647297 -56 79.25 C-55.2575 78.198125 -55.2575 78.198125 -54.5 77.125 C-45 63.66666667 -35.5 50.20833333 -26 36.75 C-25.50443604 36.04794434 -25.00887207 35.34588867 -24.49829102 34.62255859 C-23.50401322 33.21401188 -22.50971007 31.80548307 -21.51538086 30.39697266 C-18.92761684 26.7312213 -16.3403695 23.06510678 -13.75390625 19.3984375 C-13.21958984 18.64111328 -12.68527344 17.88378906 -12.13476562 17.10351562 C-11.12157945 15.66743435 -10.10854677 14.23124475 -9.09570312 12.79492188 C-6.07874624 8.51915127 -3.04527738 4.25565079 0 0 Z " fill="#60E2A0" transform="translate(417,200)"/>
<path d="M0 0 C107.25 0 214.5 0 325 0 C323.63883615 8.16698311 320.2990073 11.98725173 314.390625 17.38671875 C306.96679846 22.39658862 299.83705702 22.42427289 291.15527344 22.36076355 C289.87028615 22.36332682 288.58529886 22.3658901 287.26137257 22.36853105 C283.71065207 22.37521395 280.16020494 22.36327391 276.60951924 22.34819686 C272.77458689 22.33520888 268.93966923 22.33962791 265.10472107 22.34190369 C258.4657223 22.34347468 251.82681217 22.33408371 245.18783569 22.31719017 C235.58907352 22.29278109 225.99035409 22.28499295 216.39156425 22.2812262 C200.8171709 22.27466471 185.24282476 22.25471175 169.66845703 22.22631836 C154.54183183 22.19876996 139.41521945 22.1775402 124.28857422 22.16479492 C123.35574639 22.16400675 122.42291856 22.16321858 121.46182323 22.16240653 C116.78197408 22.15849134 112.10212484 22.15470023 107.42227554 22.15097082 C68.61481731 22.11988433 29.80741178 22.06705676 -9 22 C-8.43410156 20.91460937 -7.86820313 19.82921875 -7.28515625 18.7109375 C-6.54384241 17.2658447 -5.80298082 15.82051983 -5.0625 14.375 C-4.68931641 13.66214844 -4.31613281 12.94929688 -3.93164062 12.21484375 C-3.39506836 11.16103516 -3.39506836 11.16103516 -2.84765625 10.0859375 C-2.51773682 9.4470459 -2.18781738 8.8081543 -1.84790039 8.14990234 C-0.69137448 5.43683936 -0.69137448 5.43683936 0 0 Z " fill="#BAC2C8" transform="translate(163,449)"/>
<path d="M0 0 C0.99259827 -0.00902847 1.98519653 -0.01805695 3.00787354 -0.02735901 C5.10580438 -0.04184475 7.20378022 -0.05074407 9.30175781 -0.05444336 C12.49102131 -0.06631467 15.6783334 -0.11549668 18.8671875 -0.16601562 C20.91144895 -0.17548369 22.95572222 -0.18271689 25 -0.1875 C25.94405701 -0.20703232 26.88811401 -0.22656464 27.86077881 -0.24668884 C35.17742231 -0.19750536 40.9774283 1.76588153 46.35614014 6.88478088 C49.99240041 11.06588703 52.00463978 14.56576893 52.05615234 20.10449219 C52.06891205 21.03936462 52.08167175 21.97423706 52.09481812 22.93743896 C52.09704376 23.94163879 52.09926941 24.94583862 52.1015625 25.98046875 C52.1115477 27.54163422 52.1115477 27.54163422 52.12173462 29.13433838 C52.13185646 31.33661127 52.13655178 33.53891481 52.13623047 35.74121094 C52.14059097 39.09492223 52.17688172 42.44730384 52.21484375 45.80078125 C52.22071467 47.94400594 52.22468222 50.08723685 52.2265625 52.23046875 C52.24093353 53.22657166 52.25530457 54.22267456 52.27011108 55.2489624 C52.22321117 62.47062762 50.79269422 67.86321488 46.01953125 73.39453125 C45.46136719 73.84054688 44.90320313 74.2865625 44.328125 74.74609375 C43.49474609 75.43832031 43.49474609 75.43832031 42.64453125 76.14453125 C37.07583493 79.77981325 31.8085843 79.72078093 25.34765625 79.77734375 C24.33523361 79.7887439 23.32281097 79.80014404 22.27970886 79.81188965 C20.13890743 79.83075433 17.99804837 79.84384359 15.85717773 79.8515625 C12.60620814 79.87092648 9.35779574 79.93297491 6.10742188 79.99609375 C4.02084825 80.00916058 1.93425664 80.01965887 -0.15234375 80.02734375 C-1.11311325 80.05203735 -2.07388275 80.07673096 -3.06376648 80.10217285 C-10.40494948 80.05448958 -15.56571407 78.08083898 -21.234375 73.37109375 C-26.71045397 67.67670323 -26.95153177 61.70863702 -26.828125 54.1171875 C-26.82818542 52.52766014 -26.82818542 52.52766014 -26.82824707 50.90602112 C-26.82290891 48.67630041 -26.80539973 46.44657909 -26.77636719 44.21704102 C-26.73445799 40.81532981 -26.73530946 37.41559826 -26.7421875 34.01367188 C-26.73169547 31.83983007 -26.71875731 29.66599841 -26.703125 27.4921875 C-26.70292358 26.48159775 -26.70272217 25.471008 -26.70251465 24.42979431 C-26.59052785 17.71090565 -25.93338011 12.47099711 -21.3671875 7.2265625 C-20.70460937 6.67613281 -20.04203125 6.12570313 -19.359375 5.55859375 C-18.70195312 4.99527344 -18.04453125 4.43195313 -17.3671875 3.8515625 C-11.79552279 -0.01594835 -6.57132675 0.03701089 0 0 Z " fill="#4A4E57" transform="translate(152.234375,101.62890625)"/>
<path d="M0 0 C0.99496994 -0.0066568 1.98993988 -0.0133136 3.01506042 -0.02017212 C5.11719926 -0.03028148 7.21937008 -0.03498967 9.3215332 -0.03466797 C12.52154047 -0.03903327 15.72015913 -0.07535011 18.91992188 -0.11328125 C20.96744323 -0.11915149 23.0149711 -0.1231195 25.0625 -0.125 C26.48632744 -0.14655655 26.48632744 -0.14655655 27.93891907 -0.16854858 C35.00386414 -0.12047087 40.38542174 1.39126291 45.75390625 6.1171875 C46.19992188 6.684375 46.6459375 7.2515625 47.10546875 7.8359375 C47.79769531 8.68671875 47.79769531 8.68671875 48.50390625 9.5546875 C50.94063814 13.09338095 51.98078054 15.74528715 52.02099609 20.06933594 C52.0337558 21.00420837 52.0465155 21.93908081 52.05966187 22.90228271 C52.06188751 23.90648254 52.06411316 24.91068237 52.06640625 25.9453125 C52.07639145 27.50647797 52.07639145 27.50647797 52.08657837 29.09918213 C52.09670021 31.30145502 52.10139553 33.50375856 52.10107422 35.70605469 C52.10543472 39.05976598 52.14172547 42.41214759 52.1796875 45.765625 C52.18555842 47.90884969 52.18952597 50.0520806 52.19140625 52.1953125 C52.20577728 53.19141541 52.22014832 54.18751831 52.23495483 55.21380615 C52.18805492 62.43547137 50.75753797 67.82805863 45.984375 73.359375 C45.42621094 73.80539062 44.86804688 74.25140625 44.29296875 74.7109375 C43.45958984 75.40316406 43.45958984 75.40316406 42.609375 76.109375 C37.06416565 79.72932455 31.89103155 79.6568941 25.4609375 79.671875 C24.46596756 79.6785318 23.47099762 79.6851886 22.44587708 79.69204712 C20.34373824 79.70215648 18.24156742 79.70686467 16.1394043 79.70654297 C12.93939703 79.71090827 9.74077837 79.74722511 6.54101562 79.78515625 C4.49349427 79.79102649 2.4459664 79.7949945 0.3984375 79.796875 C-0.55078079 79.81124603 -1.49999908 79.82561707 -2.47798157 79.84042358 C-9.73290535 79.79105305 -15.12056222 78.19863661 -20.546875 73.265625 C-21.09472656 72.58757812 -21.64257812 71.90953125 -22.20703125 71.2109375 C-22.77292969 70.52773438 -23.33882812 69.84453125 -23.921875 69.140625 C-26.13708994 66.17416325 -26.40114963 64.37416038 -26.43066406 60.72192383 C-26.44507538 59.28451591 -26.44507538 59.28451591 -26.45977783 57.81806946 C-26.46402771 56.77853622 -26.46827759 55.73900299 -26.47265625 54.66796875 C-26.48120636 53.06570686 -26.48120636 53.06570686 -26.4899292 51.43107605 C-26.49938969 49.16556797 -26.50591733 46.90004605 -26.50976562 44.63452148 C-26.51944303 41.17992831 -26.55044543 37.7259371 -26.58203125 34.27148438 C-26.58856407 32.07031603 -26.59381344 29.86914343 -26.59765625 27.66796875 C-26.61617645 26.12385063 -26.61617645 26.12385063 -26.6350708 24.54853821 C-26.61406451 17.73076226 -26.03889372 12.51664879 -21.40234375 7.19140625 C-20.73976562 6.64097656 -20.0771875 6.09054688 -19.39453125 5.5234375 C-18.73710937 4.96011719 -18.0796875 4.39679688 -17.40234375 3.81640625 C-11.81199724 -0.06407237 -6.59157901 0.01535713 0 0 Z " fill="#4A4E57" transform="translate(152.26953125,212.6640625)"/>
<path d="M0 0 C0.91169952 -0.01283524 1.82339905 -0.02567047 2.76272583 -0.03889465 C4.23925125 -0.04997505 4.23925125 -0.04997505 5.74560547 -0.0612793 C6.76322968 -0.06935104 7.78085388 -0.07742279 8.82931519 -0.08573914 C10.98629048 -0.09957609 13.14328763 -0.11029998 15.30029297 -0.11816406 C18.57936921 -0.13532314 21.85742299 -0.17920721 25.13623047 -0.22338867 C27.23518141 -0.23352074 29.33414091 -0.24203523 31.43310547 -0.2487793 C32.40531036 -0.26628738 33.37751526 -0.28379547 34.37918091 -0.30183411 C41.68821875 -0.27885668 48.18683994 1.06142853 53.64404297 6.2121582 C54.08748047 6.88118164 54.53091797 7.55020508 54.98779297 8.23950195 C55.68388672 9.2469043 55.68388672 9.2469043 56.39404297 10.2746582 C58.24581075 13.49541145 58.62122002 16.15867137 58.66479492 19.796875 C58.68404778 21.19929695 58.68404778 21.19929695 58.70368958 22.63005066 C58.71107651 23.63941177 58.71846344 24.64877289 58.72607422 25.6887207 C58.73414597 26.73091263 58.74221771 27.77310455 58.75053406 28.84687805 C58.76437051 31.05512837 58.77509463 33.26340003 58.78295898 35.47167969 C58.80013794 38.83415805 58.84402505 42.19564449 58.88818359 45.55786133 C58.89831382 47.70564057 58.90682889 49.85342816 58.91357422 52.0012207 C58.93108231 53.00046066 58.94859039 53.99970062 58.96662903 55.02922058 C58.94433687 62.27340332 57.66055151 67.96770493 52.45263672 73.2355957 C51.78361328 73.69063477 51.11458984 74.14567383 50.42529297 74.61450195 C49.75369141 75.08758789 49.08208984 75.56067383 48.39013672 76.0480957 C45.14473659 77.97401077 42.45052091 78.31089537 38.76025391 78.35400391 C37.8020575 78.36683914 36.84386108 78.37967438 35.85662842 78.39289856 C34.3050705 78.40397896 34.3050705 78.40397896 32.72216797 78.4152832 C31.65540833 78.42335495 30.58864868 78.4314267 29.48956299 78.43974304 C27.23003767 78.45357902 24.97049149 78.46430335 22.7109375 78.47216797 C19.26505631 78.48936589 15.82013825 78.53325581 12.37451172 78.57739258 C10.17790418 78.58752106 7.9812885 78.59603667 5.78466797 78.6027832 C4.75839294 78.62029129 3.73211792 78.63779938 2.67474365 78.65583801 C-4.44445759 78.63438396 -8.8027808 77.49596227 -14.21923828 72.6496582 C-17.85206273 68.01556058 -19.73759782 64.1579428 -19.83447266 58.25415039 C-19.85368774 57.30256042 -19.87290283 56.35097046 -19.8927002 55.37054443 C-19.90119995 54.35276917 -19.90969971 53.3349939 -19.91845703 52.28637695 C-19.92985718 51.22719055 -19.94125732 50.16800415 -19.95300293 49.07672119 C-19.97186956 46.83756485 -19.98495765 44.59835339 -19.99267578 42.35913086 C-20.01206267 38.95237067 -20.07412026 35.54803855 -20.13720703 32.1418457 C-20.15027132 29.96087037 -20.16077061 27.77987787 -20.16845703 25.59887695 C-20.19315063 24.58919861 -20.21784424 23.57952026 -20.24328613 22.53924561 C-20.19811334 15.28264539 -18.33521358 10.63465334 -13.51220703 5.17700195 C-9.41704937 1.62108802 -5.39963798 0.06634921 0 0 Z " fill="#494D55" transform="translate(145.51220703125,324.822998046875)"/>
<path d="M0 0 C6.67036662 4.5901498 10.55178153 9.98035034 12.66796875 17.8359375 C13.04987429 21.45852728 13.01933774 25.04037438 12.9609375 28.6796875 C12.95669266 29.68938599 12.95244781 30.69908447 12.94807434 31.73937988 C12.93139089 34.93851307 12.89375778 38.13699733 12.85546875 41.3359375 C12.84040857 43.51561585 12.8267225 45.69530415 12.81445312 47.875 C12.7815212 53.19555943 12.72981056 58.51563875 12.66796875 63.8359375 C7.38796875 63.8359375 2.10796875 63.8359375 -3.33203125 63.8359375 C-3.99203125 62.1859375 -4.65203125 60.5359375 -5.33203125 58.8359375 C-8.31058481 55.85738394 -11.62227948 56.47968566 -15.62109375 56.421875 C-16.8487294 56.39282578 -16.8487294 56.39282578 -18.10116577 56.3631897 C-20.71968101 56.30332668 -23.33824006 56.25698218 -25.95703125 56.2109375 C-27.73048811 56.17276386 -29.5039263 56.13371249 -31.27734375 56.09375 C-35.628755 55.99761979 -39.98025304 55.91361399 -44.33203125 55.8359375 C-44.45659085 50.46492766 -44.54681827 45.09477739 -44.60668945 39.72265625 C-44.63167404 37.89926488 -44.66567404 36.07597202 -44.70922852 34.25292969 C-45.19870282 13.22281023 -45.19870282 13.22281023 -37.41845703 4.75268555 C-26.67813484 -5.72633926 -13.09647721 -7.37001227 0 0 Z " fill="#BBC3C9" transform="translate(66.33203125,45.1640625)"/>
<path d="M0 0 C1.31134666 -0.00934319 1.31134666 -0.00934319 2.64918518 -0.01887512 C3.5898735 -0.00966537 4.53056183 -0.00045563 5.49975586 0.0090332 C6.95121254 0.00828545 6.95121254 0.00828545 8.43199158 0.00752258 C10.47714289 0.00986301 12.52229707 0.01958967 14.56738281 0.03613281 C17.70590827 0.05974905 20.84358589 0.05669057 23.98217773 0.05004883 C25.96720886 0.05562467 27.9522364 0.06273396 29.93725586 0.0715332 C30.87996841 0.0706218 31.82268097 0.06971039 32.79396057 0.06877136 C33.66503952 0.07830338 34.53611847 0.08783539 35.43359375 0.09765625 C36.5858419 0.10456734 36.5858419 0.10456734 37.7613678 0.11161804 C39.65209961 0.37231445 39.65209961 0.37231445 41.65209961 2.37231445 C41.91279602 4.26304626 41.91279602 4.26304626 41.92675781 6.59082031 C41.94105583 7.89743874 41.94105583 7.89743874 41.9556427 9.23045349 C41.95473129 10.17316605 41.95381989 11.1158786 41.95288086 12.0871582 C41.95716599 13.05383926 41.96145111 14.02052032 41.96586609 15.01649475 C41.97161573 17.06339738 41.972105 19.11032044 41.96777344 21.15722656 C41.9646158 24.29372958 41.98805683 27.42928769 42.01342773 30.56567383 C42.01570084 32.55200076 42.01640417 34.53833024 42.01538086 36.5246582 C42.02459061 37.46534653 42.03380035 38.40603485 42.04328918 39.37522888 C42.03706039 40.24945999 42.0308316 41.1236911 42.02441406 42.02441406 C42.02504349 42.79337509 42.02567291 43.56233612 42.02632141 44.354599 C41.543139 46.95980431 40.78771381 47.82938175 38.65209961 49.37231445 C36.72377014 49.75999451 36.72377014 49.75999451 34.51953125 49.77636719 C33.69179703 49.78905136 32.86406281 49.80173553 32.01124573 49.81480408 C31.12057907 49.81186844 30.22991241 49.8089328 29.31225586 49.8059082 C28.39375351 49.81115005 27.47525116 49.81639191 26.52891541 49.8217926 C24.58634451 49.82821605 22.64373474 49.82687164 20.70117188 49.81835938 C17.72903102 49.80985574 14.75881581 49.83859551 11.78686523 49.87036133 C9.89949602 49.87197358 8.0121234 49.87139535 6.12475586 49.8684082 C5.23611343 49.87964218 4.34747101 49.89087616 3.43190002 49.90245056 C-0.23957451 49.86099854 -2.67469488 49.75056739 -5.90893555 47.93334961 C-8.11912333 43.99971035 -7.90012673 40.33991931 -7.84399414 35.8996582 C-7.84617699 34.52046959 -7.84617699 34.52046959 -7.84840393 33.11341858 C-7.84674601 31.17258531 -7.83519662 29.23173875 -7.81445312 27.29101562 C-7.78546942 24.31689801 -7.7938519 21.34455974 -7.80688477 18.37036133 C-7.80064813 16.48428494 -7.79225778 14.59821419 -7.78149414 12.7121582 C-7.78442978 11.82149155 -7.78736542 10.93082489 -7.79039001 10.01316833 C-7.77770584 9.18543411 -7.76502167 8.35769989 -7.75195312 7.50488281 C-7.74655014 6.77748398 -7.74114716 6.05008514 -7.73558044 5.30064392 C-6.85334317 0.91237551 -4.1291371 -0.00337986 0 0 Z " fill="#FCD86C" transform="translate(147.347900390625,339.627685546875)"/>
<path d="M0 0 C0.94307007 -0.00145523 1.88614014 -0.00291046 2.85778809 -0.00440979 C4.85167531 -0.0027498 6.8455752 0.00882266 8.83935547 0.02954102 C11.89475826 0.05848489 14.94842552 0.05015436 18.00390625 0.03710938 C19.94011262 0.043347 21.87631349 0.05173812 23.8125 0.0625 C24.72817749 0.05956436 25.64385498 0.05662872 26.58728027 0.05360413 C27.86375427 0.07263039 27.86375427 0.07263039 29.16601562 0.09204102 C30.28828552 0.10014549 30.28828552 0.10014549 31.43322754 0.1084137 C34.00279729 0.61330959 34.87876993 1.38574434 36.40625 3.49609375 C36.78720093 5.46911621 36.78720093 5.46911621 36.79443359 7.73632812 C36.80389008 8.58731079 36.81334656 9.43829346 36.8230896 10.31506348 C36.81701691 11.23074097 36.81094421 12.14641846 36.8046875 13.08984375 C36.80755768 14.03291382 36.81042786 14.97598389 36.81338501 15.94763184 C36.81542646 17.94149374 36.80989093 19.93537563 36.79736328 21.92919922 C36.78131089 24.98450419 36.79720933 28.03848627 36.81640625 31.09375 C36.81442383 33.02995084 36.81058019 34.96615086 36.8046875 36.90234375 C36.81379654 38.27585999 36.81379654 38.27585999 36.8230896 39.67712402 C36.81363312 40.52810669 36.80417664 41.37908936 36.79443359 42.25585938 C36.79204681 43.00403931 36.78966003 43.75221924 36.78720093 44.52307129 C36.29037102 47.0962546 35.51770072 47.96748428 33.40625 49.49609375 C31.43322754 49.8837738 31.43322754 49.8837738 29.16601562 49.90014648 C27.88954163 49.91917274 27.88954163 49.91917274 26.58728027 49.93858337 C25.67160278 49.93564774 24.75592529 49.9327121 23.8125 49.9296875 C22.86942993 49.93492935 21.92635986 49.9401712 20.95471191 49.9455719 C18.96086614 49.95199521 16.96698248 49.95065111 14.97314453 49.94213867 C11.91761043 49.9336254 8.86394321 49.96239098 5.80859375 49.99414062 C3.87239639 49.99575259 1.93619572 49.9951752 0 49.9921875 C-0.91567749 50.00342148 -1.83135498 50.01465546 -2.77478027 50.02622986 C-8.93457013 49.95832638 -8.93457013 49.95832638 -11.66845703 48.04125977 C-13.09001692 44.13103236 -13.02123212 40.4079421 -12.9921875 36.27734375 C-12.99505768 35.38245239 -12.99792786 34.48756104 -13.00088501 33.56555176 C-13.0029239 31.67601894 -12.99740629 29.78646494 -12.98486328 27.89697266 C-12.968807 25.0063554 -12.98471776 22.11713632 -13.00390625 19.2265625 C-13.00192379 17.38931983 -12.99808005 15.55207804 -12.9921875 13.71484375 C-12.99826019 12.85121216 -13.00433289 11.98758057 -13.0105896 11.09777832 C-12.9717651 7.78194258 -12.80583406 5.07946482 -11.66845703 1.95092773 C-8.11658477 -0.53972969 -4.22289279 -0.05180851 0 0 Z " fill="#6DBAF1" transform="translate(152.59375,227.50390625)"/>
<path d="M0 0 C0.94307007 -0.00145523 1.88614014 -0.00291046 2.85778809 -0.00440979 C4.85167531 -0.0027498 6.8455752 0.00882266 8.83935547 0.02954102 C11.89475826 0.05848489 14.94842552 0.05015436 18.00390625 0.03710938 C19.94011262 0.043347 21.87631349 0.05173812 23.8125 0.0625 C24.72817749 0.05956436 25.64385498 0.05662872 26.58728027 0.05360413 C27.86375427 0.07263039 27.86375427 0.07263039 29.16601562 0.09204102 C30.28828552 0.10014549 30.28828552 0.10014549 31.43322754 0.1084137 C34.00279729 0.61330959 34.87876993 1.38574434 36.40625 3.49609375 C36.78720093 5.46911621 36.78720093 5.46911621 36.79443359 7.73632812 C36.80389008 8.58731079 36.81334656 9.43829346 36.8230896 10.31506348 C36.81701691 11.23074097 36.81094421 12.14641846 36.8046875 13.08984375 C36.80755768 14.03291382 36.81042786 14.97598389 36.81338501 15.94763184 C36.81542646 17.94149374 36.80989093 19.93537563 36.79736328 21.92919922 C36.78131089 24.98450419 36.79720933 28.03848627 36.81640625 31.09375 C36.81442383 33.02995084 36.81058019 34.96615086 36.8046875 36.90234375 C36.81379654 38.27585999 36.81379654 38.27585999 36.8230896 39.67712402 C36.81363312 40.52810669 36.80417664 41.37908936 36.79443359 42.25585938 C36.79204681 43.00403931 36.78966003 43.75221924 36.78720093 44.52307129 C36.29037102 47.0962546 35.51770072 47.96748428 33.40625 49.49609375 C31.43322754 49.8837738 31.43322754 49.8837738 29.16601562 49.90014648 C27.88954163 49.91917274 27.88954163 49.91917274 26.58728027 49.93858337 C25.67160278 49.93564774 24.75592529 49.9327121 23.8125 49.9296875 C22.86942993 49.93492935 21.92635986 49.9401712 20.95471191 49.9455719 C18.96086614 49.95199521 16.96698248 49.95065111 14.97314453 49.94213867 C11.91761043 49.9336254 8.86394321 49.96239098 5.80859375 49.99414062 C3.87239639 49.99575259 1.93619572 49.9951752 0 49.9921875 C-0.91567749 50.00342148 -1.83135498 50.01465546 -2.77478027 50.02622986 C-8.93457013 49.95832638 -8.93457013 49.95832638 -11.66845703 48.04125977 C-13.09001692 44.13103236 -13.02123212 40.4079421 -12.9921875 36.27734375 C-12.99505768 35.38245239 -12.99792786 34.48756104 -13.00088501 33.56555176 C-13.0029239 31.67601894 -12.99740629 29.78646494 -12.98486328 27.89697266 C-12.968807 25.0063554 -12.98471776 22.11713632 -13.00390625 19.2265625 C-13.00192379 17.38931983 -12.99808005 15.55207804 -12.9921875 13.71484375 C-12.99826019 12.85121216 -13.00433289 11.98758057 -13.0105896 11.09777832 C-12.9717651 7.78194258 -12.80583406 5.07946482 -11.66845703 1.95092773 C-8.11658477 -0.53972969 -4.22289279 -0.05180851 0 0 Z " fill="#F97C84" transform="translate(152.59375,116.50390625)"/>
<path d="M0 0 C1.13418365 -0.0112793 2.26836731 -0.02255859 3.43692017 -0.03417969 C4.67703354 -0.02608276 5.91714691 -0.01798584 7.19483948 -0.00964355 C9.15876648 -0.02015747 9.15876648 -0.02015747 11.16236877 -0.03088379 C14.75134681 -0.04911698 18.33986483 -0.04204954 21.92885089 -0.02936745 C25.68615121 -0.01923747 29.44341224 -0.02863331 33.20071411 -0.03491211 C39.51149055 -0.04218945 45.82207975 -0.0325996 52.13282776 -0.0135498 C59.42542651 0.00820985 66.71757777 0.00117481 74.01016563 -0.02085543 C80.27358114 -0.03901833 86.53686207 -0.04156316 92.80029541 -0.03110075 C96.54016041 -0.02486944 100.27981523 -0.02401983 104.01966667 -0.0372467 C108.19030544 -0.05096665 112.36017535 -0.0319411 116.53077698 -0.00964355 C117.76886612 -0.01774048 119.00695526 -0.0258374 120.28256226 -0.03417969 C121.98806747 -0.01726074 121.98806747 -0.01726074 123.72802734 0 C124.71375953 0.0015081 125.69949171 0.0030162 126.71509457 0.00457001 C130.23507674 0.65780226 131.94152995 1.96730872 134.42750549 4.50793457 C134.42750549 7.96576936 134.26324467 10.34614201 132.21135712 13.19854832 C129.71589409 15.03027296 127.96625405 14.88815666 124.88587952 14.89561462 C123.7333519 14.90551926 122.58082428 14.91542389 121.39337158 14.92562866 C119.49504326 14.91887619 119.49504326 14.91887619 117.55836487 14.9119873 C116.21304761 14.91768907 114.86773518 14.92465258 113.52243042 14.93278503 C109.86749496 14.95075204 106.21279911 14.94954165 102.55783272 14.94384265 C99.50844954 14.94075626 96.45911275 14.94683702 93.40973616 14.9528814 C86.21754072 14.96693628 79.02546405 14.96535703 71.83326721 14.95397949 C64.40831346 14.94249346 56.9837207 14.95657963 49.55881453 14.98337597 C43.1876087 15.00551034 36.81651639 15.0121756 30.44527483 15.00629956 C26.63837574 15.00292376 22.83170815 15.0053861 19.02484131 15.02255058 C15.44602369 15.03798221 11.86774229 15.03410717 8.28894615 15.01524544 C6.34650219 15.00978374 4.40403437 15.02410184 2.4616394 15.03894043 C1.30911179 15.02910629 0.15658417 15.01927216 -1.03086853 15.00914001 C-2.03449181 15.00893073 -3.03811508 15.00872145 -4.07215118 15.00850582 C-6.57249451 14.50793457 -6.57249451 14.50793457 -8.39150238 12.66410923 C-10.01148472 9.70645626 -10.05714347 7.83124174 -9.57249451 4.50793457 C-6.64125656 0.74450891 -4.70792553 0.00720556 0 0 Z " fill="#4B4F58" transform="translate(249.57249450683594,115.4920654296875)"/>
<path d="M0 0 C1.09470612 -0.00700928 2.18941223 -0.01401855 3.31729126 -0.02124023 C6.94038164 -0.03886275 10.56269252 -0.02718084 14.18579102 -0.01367188 C16.70158539 -0.01636574 19.21737875 -0.02024728 21.73316956 -0.02526855 C27.00822923 -0.03116954 32.28308586 -0.02296273 37.55810547 -0.00390625 C43.65103969 0.01785127 49.74343826 0.01081924 55.83635944 -0.01121187 C61.70330122 -0.0315745 67.57003993 -0.02938899 73.43699837 -0.01768494 C75.93088926 -0.01501524 78.4247938 -0.01829589 80.91866875 -0.02760315 C84.40448124 -0.03775598 87.88926422 -0.0222831 91.375 0 C92.40737289 -0.00809692 93.43974579 -0.01619385 94.50340271 -0.02453613 C98.90842806 0.02766053 101.5396413 0.09955064 105.39686584 2.36242676 C107.25219727 4.51757812 107.25219727 4.51757812 107.81469727 7.51757812 C107.09184786 11.37277496 106.48407697 12.26767639 103.25219727 14.51757812 C99.60393485 15.13021082 95.98088804 15.06345703 92.2890625 15.03515625 C90.61292374 15.04567017 90.61292374 15.04567017 88.90292358 15.05639648 C85.20529412 15.0740176 81.50842841 15.06233915 77.81079102 15.04882812 C75.24536492 15.05152164 72.67993981 15.05540289 70.11451721 15.0604248 C64.73688095 15.06632532 59.35953255 15.05811884 53.98193359 15.0390625 C47.76399526 15.0172828 41.54658134 15.02435346 35.32865566 15.04636812 C29.34636521 15.06670086 23.36433149 15.06455756 17.38200569 15.05284119 C14.83622222 15.05016759 12.29042542 15.05346575 9.74465752 15.0627594 C6.19138669 15.07288459 2.63913234 15.05747938 -0.9140625 15.03515625 C-1.97232742 15.04325317 -3.03059235 15.0513501 -4.1209259 15.05969238 C-5.08689697 15.04841309 -6.05286804 15.03713379 -7.04811096 15.0255127 C-7.88819985 15.02400459 -8.72828875 15.02249649 -9.59383488 15.02094269 C-11.74780273 14.51757812 -11.74780273 14.51757812 -13.51418972 12.67333221 C-15.20433202 9.71978751 -15.23642917 7.86815937 -14.74780273 4.51757812 C-11.27016368 -1.01119507 -5.85244879 -0.04581106 0 0 Z " fill="#4A4F57" transform="translate(254.747802734375,226.482421875)"/>
<path d="M0 0 C1.45427399 -0.00810448 1.45427399 -0.00810448 2.93792725 -0.01637268 C6.14382419 -0.02888359 9.34882725 -0.01235278 12.5546875 0.00561523 C14.78141324 0.0054603 17.00813925 0.00397228 19.23486328 0.00120544 C23.90213946 -0.00017961 28.56910873 0.01239768 33.23632812 0.03515625 C39.22213213 0.0635409 45.20742607 0.06080484 51.19326782 0.04806614 C55.79146692 0.04111472 60.38954791 0.04889216 64.98773193 0.06132317 C67.19496203 0.06584287 69.40220478 0.06616995 71.60943604 0.06225777 C74.6930139 0.05935087 77.77588622 0.07582808 80.859375 0.09765625 C82.23098785 0.09090378 82.23098785 0.09090378 83.63031006 0.08401489 C89.75376224 0.15612063 89.75376224 0.15612063 92.99267578 1.81211853 C94.4296875 3.50170898 94.4296875 3.50170898 94.9921875 6.93920898 C94.4296875 10.50170898 94.4296875 10.50170898 92.49403381 12.6920166 C88.21986614 15.21618583 84.71755495 15.06311838 79.83764648 15.01928711 C78.87773804 15.02629639 77.91782959 15.03330566 76.92883301 15.04052734 C73.7608535 15.05811028 70.59376959 15.04648411 67.42578125 15.03295898 C65.22290373 15.03565358 63.02002738 15.03953573 60.81715393 15.04455566 C56.20293847 15.05045095 51.58903293 15.04188569 46.97485352 15.02319336 C41.05736631 15.00039073 35.14060425 15.01353547 29.22314358 15.03748322 C24.67554752 15.05192876 20.12812375 15.04734108 15.58052254 15.03697205 C13.39840675 15.03430203 11.21627536 15.03758414 9.03417778 15.04689026 C5.9864741 15.05703658 2.9399497 15.04158158 -0.10766602 15.01928711 C-1.46289619 15.0314325 -1.46289619 15.0314325 -2.84550476 15.04382324 C-8.93261926 14.9612291 -8.93261926 14.9612291 -12.13047791 12.65686035 C-14.10597998 9.69991932 -14.15133641 7.98785242 -13.5703125 4.50170898 C-10.11107006 -0.70280818 -5.67724355 -0.06002504 0 0 Z " fill="#4A4E57" transform="translate(253.5703125,152.498291015625)"/>
<path d="M0 0 C6.70205212 3.55543246 12.2119234 9.91454243 14.546875 17.21875 C16.57344271 28.08115291 13.6699434 35.24588034 7.9375 44.3125 C2.85674525 42.68546066 -1.0150968 39.63511846 -5.25 36.5 C-6.84885807 35.33059207 -8.44781959 34.16132558 -10.046875 32.9921875 C-10.86865234 32.38858398 -11.69042969 31.78498047 -12.53710938 31.16308594 C-16.67650684 28.12976877 -20.83871427 25.12817803 -25 22.125 C-25.76272217 21.57287842 -26.52544434 21.02075684 -27.3112793 20.4519043 C-28.02195557 19.93797119 -28.73263184 19.42403809 -29.46484375 18.89453125 C-30.08866943 18.44311768 -30.71249512 17.9917041 -31.35522461 17.52661133 C-32.90359387 16.42550446 -34.48162991 15.36641339 -36.0625 14.3125 C-33.8566839 7.29399424 -28.13185196 3.05191116 -22.0625 -0.6875 C-15.22537006 -2.96654331 -6.66539269 -2.7875504 0 0 Z " fill="#FCD96C" transform="translate(463.0625,175.6875)"/>
<path d="M0 0 C0.84417984 -0.00525696 1.68835968 -0.01051392 2.55812073 -0.01593018 C5.35208571 -0.02914761 8.14548222 -0.020386 10.93945312 -0.01025391 C12.87854115 -0.01227414 14.81762844 -0.01518516 16.75671387 -0.01895142 C20.82209502 -0.02337713 24.88727852 -0.01693574 28.95263672 -0.00292969 C34.16844158 0.01416231 39.38378336 0.00432245 44.59957123 -0.01364708 C48.60410055 -0.02447822 52.60851976 -0.02104165 56.61305237 -0.0132637 C58.53642328 -0.01125984 60.45980414 -0.01372747 62.38316345 -0.02070236 C65.06951449 -0.02830582 67.75511149 -0.01672835 70.44140625 0 C71.23942154 -0.00607269 72.03743683 -0.01214539 72.8596344 -0.0184021 C78.19387051 0.04325901 78.19387051 0.04325901 80.71472168 1.69369507 C82.43437882 4.59030843 82.0703469 7.12484172 81.72070312 10.38818359 C80.71472168 12.08267212 80.71472168 12.08267212 78.72070312 13.38818359 C75.88795929 13.68437032 73.27501824 13.79793025 70.44140625 13.77636719 C69.59722641 13.78162415 68.75304657 13.7868811 67.88328552 13.79229736 C65.08932054 13.80551479 62.29592403 13.79675318 59.50195312 13.78662109 C57.5628651 13.78864133 55.62377781 13.79155234 53.68469238 13.7953186 C49.61931123 13.79974432 45.55412773 13.79330292 41.48876953 13.77929688 C36.27296467 13.76220488 31.05762289 13.77204474 25.84183502 13.79001427 C21.8373057 13.80084541 17.83288649 13.79740884 13.82835388 13.78963089 C11.90498297 13.78762703 9.98160211 13.79009466 8.0582428 13.79706955 C5.37189176 13.80467301 2.68629476 13.79309554 0 13.77636719 C-1.19702293 13.78547623 -1.19702293 13.78547623 -2.41822815 13.79476929 C-7.75246426 13.73310818 -7.75246426 13.73310818 -10.27331543 12.08267212 C-11.99297257 9.18605876 -11.62894065 6.65152547 -11.27929688 3.38818359 C-8.78221799 -0.81792929 -4.34770707 -0.03308494 0 0 Z " fill="#484C55" transform="translate(251.279296875,264.61181640625)"/>
<path d="M0 0 C4.25922824 1.44565046 7.24974103 3.57297922 10.75 6.375 C18.60325177 12.57622057 26.79324761 18.27984444 35 24 C31.81173121 27.64056152 28.64654891 29.29852857 24.22265625 31.19921875 C23.57429306 31.47973587 22.92592987 31.76025299 22.25791931 32.04927063 C20.8924007 32.63773144 19.52488315 33.22157297 18.15551758 33.80102539 C16.06816263 34.68510165 13.98790896 35.58442616 11.90820312 36.48632812 C0.83169548 41.2408232 0.83169548 41.2408232 -4 42 C-3.76326335 36.66086545 -3.51475407 31.32245738 -3.25537109 25.984375 C-3.16880569 24.16877101 -3.08544596 22.3530112 -3.00537109 20.53710938 C-2.8896401 17.92530382 -2.76235003 15.31427772 -2.6328125 12.703125 C-2.59938751 11.89256653 -2.56596252 11.08200806 -2.53152466 10.24688721 C-2.33044848 6.41349503 -2.15053703 3.26024476 0 0 Z " fill="#F9D6BB" transform="translate(333,329)"/>
<path d="M0 0 C1.60186157 -0.01891296 1.60186157 -0.01891296 3.23608398 -0.03820801 C4.95807007 -0.02606262 4.95807007 -0.02606262 6.71484375 -0.01367188 C7.89828369 -0.01749878 9.08172363 -0.02132568 10.30102539 -0.02526855 C12.80258027 -0.02798997 15.30416349 -0.02061291 17.80566406 -0.00390625 C21.63801424 0.01749809 25.46848949 -0.00370232 29.30078125 -0.02929688 C31.73047289 -0.02665364 34.16016337 -0.02152876 36.58984375 -0.01367188 C37.73783447 -0.0217688 38.8858252 -0.02986572 40.06860352 -0.03820801 C41.13651123 -0.02559937 42.20441895 -0.01299072 43.3046875 0 C44.7122229 0.00477356 44.7122229 0.00477356 46.14819336 0.00964355 C49.42908066 0.67512918 50.62610029 1.89631739 52.65234375 4.51757812 C53.38476329 10.48156577 53.38476329 10.48156577 51.45787048 13.20716858 C48.99943834 14.99144177 47.35070767 14.90458038 44.32641602 14.92163086 C43.23841202 14.93431503 42.15040802 14.94699921 41.0294342 14.96006775 C39.85440842 14.95713211 38.67938263 14.95419647 37.46875 14.95117188 C35.6581736 14.95903465 35.6581736 14.95903465 33.8110199 14.96705627 C31.2564267 14.97348447 28.70180392 14.97212924 26.1472168 14.96362305 C22.23367686 14.95511905 18.32159854 14.98385683 14.40820312 15.015625 C11.92838586 15.01723716 9.44856599 15.01665919 6.96875 15.01367188 C5.20924767 15.03052284 5.20924767 15.03052284 3.41419983 15.04771423 C2.32304367 15.03833328 1.23188751 15.02895233 0.10766602 15.01928711 C-0.85147202 15.01912094 -1.81061005 15.01895477 -2.79881287 15.01878357 C-6.10257235 14.36913116 -7.29417811 13.13700243 -9.34765625 10.51757812 C-9.84765625 7.51757812 -9.84765625 7.51757812 -9.34765625 4.51757812 C-6.46632991 0.85840559 -4.61137168 0.01563915 0 0 Z " fill="#4A4E57" transform="translate(249.34765625,337.482421875)"/>
<path d="M0 0 C1.07104477 -0.0038269 2.14208954 -0.00765381 3.24559021 -0.01159668 C5.50577741 -0.01431443 7.76599613 -0.00696295 10.02612305 0.00976562 C13.487528 0.03119697 16.94686219 0.00994717 20.40820312 -0.015625 C22.60547333 -0.01298211 24.80274225 -0.00785795 27 0 C28.03548477 -0.00809692 29.07096954 -0.01619385 30.13783264 -0.02453613 C37.25474764 0.06849398 37.25474764 0.06849398 40.58959961 2.34179688 C42.55401647 5.54195862 42.40096413 7.85905416 41.93359375 11.53125 C40.72290039 13.22183228 40.72290039 13.22183228 38.93359375 14.53125 C36.61889648 14.91220093 36.61889648 14.91220093 33.8671875 14.91943359 C32.32043335 14.93361832 32.32043335 14.93361832 30.74243164 14.9480896 C29.62989014 14.94201691 28.51734863 14.93594421 27.37109375 14.9296875 C26.22825928 14.93255768 25.0854248 14.93542786 23.90795898 14.93838501 C21.4903921 14.94042757 19.07280876 14.93488438 16.65527344 14.92236328 C12.9481929 14.90631321 9.24220275 14.92220641 5.53515625 14.94140625 C3.18879967 14.93942385 0.84244377 14.93558025 -1.50390625 14.9296875 C-3.17271851 14.93879654 -3.17271851 14.93879654 -4.87524414 14.9480896 C-5.90641357 14.93863312 -6.93758301 14.92917664 -8 14.91943359 C-9.36209595 14.91585342 -9.36209595 14.91585342 -10.75170898 14.91220093 C-13.54245711 14.45290195 -14.42867124 13.81078784 -16.06640625 11.53125 C-16.56640625 8.09375 -16.56640625 8.09375 -16.06640625 4.53125 C-11.66329418 -0.70924224 -6.32385123 -0.04954591 0 0 Z " fill="#4C5159" transform="translate(256.06640625,374.46875)"/>
</svg>
